<svg viewBox="0 0 50 50" fill="none" xmlns="http://www.w3.org/2000/svg">
<path d="M23.3333 6.66667V1.66667C23.3333 1.22464 23.5089 0.800716 23.8215 0.488155C24.134 0.175595 24.558 0 25 0C25.442 0 25.866 0.175595 26.1785 0.488155C26.4911 0.800716 26.6667 1.22464 26.6667 1.66667V6.66667C26.6667 7.10869 26.4911 7.53262 26.1785 7.84518C25.866 8.15774 25.442 8.33333 25 8.33333C24.558 8.33333 24.134 8.15774 23.8215 7.84518C23.5089 7.53262 23.3333 7.10869 23.3333 6.66667ZM25 11.6667C22.3629 11.6667 19.7851 12.4487 17.5924 13.9137C15.3997 15.3788 13.6908 17.4612 12.6816 19.8976C11.6724 22.3339 11.4084 25.0148 11.9229 27.6012C12.4373 30.1876 13.7072 32.5634 15.5719 34.4281C17.4366 36.2928 19.8124 37.5627 22.3988 38.0771C24.9852 38.5916 27.6661 38.3276 30.1024 37.3184C32.5388 36.3092 34.6212 34.6003 36.0863 32.4076C37.5513 30.2149 38.3333 27.6371 38.3333 25C38.3295 21.465 36.9235 18.0758 34.4238 15.5762C31.9242 13.0765 28.535 11.6705 25 11.6667ZM10.4875 12.8458C10.8002 13.1586 11.2244 13.3343 11.6667 13.3343C12.1089 13.3343 12.5331 13.1586 12.8458 12.8458C13.1586 12.5331 13.3343 12.1089 13.3343 11.6667C13.3343 11.2244 13.1586 10.8002 12.8458 10.4875L9.5125 7.15417C9.19977 6.84143 8.77561 6.66574 8.33333 6.66574C7.89106 6.66574 7.4669 6.84143 7.15417 7.15417C6.84143 7.4669 6.66574 7.89106 6.66574 8.33333C6.66574 8.77561 6.84143 9.19977 7.15417 9.5125L10.4875 12.8458ZM10.4875 37.1542L7.15417 40.4875C6.84143 40.8002 6.66574 41.2244 6.66574 41.6667C6.66574 42.1089 6.84143 42.5331 7.15417 42.8458C7.4669 43.1586 7.89106 43.3343 8.33333 43.3343C8.77561 43.3343 9.19977 43.1586 9.5125 42.8458L12.8458 39.5125C13.0007 39.3577 13.1235 39.1738 13.2073 38.9715C13.2911 38.7692 13.3343 38.5523 13.3343 38.3333C13.3343 38.1143 13.2911 37.8975 13.2073 37.6952C13.1235 37.4929 13.0007 37.309 12.8458 37.1542C12.691 36.9993 12.5071 36.8765 12.3048 36.7927C12.1025 36.7089 11.8857 36.6657 11.6667 36.6657C11.4477 36.6657 11.2308 36.7089 11.0285 36.7927C10.8262 36.8765 10.6424 36.9993 10.4875 37.1542ZM38.3333 13.3333C38.5523 13.3335 38.7691 13.2905 38.9714 13.2069C39.1737 13.1232 39.3576 13.0006 39.5125 12.8458L42.8458 9.5125C43.1586 9.19977 43.3343 8.77561 43.3343 8.33333C43.3343 7.89106 43.1586 7.4669 42.8458 7.15417C42.5331 6.84143 42.1089 6.66574 41.6667 6.66574C41.2244 6.66574 40.8002 6.84143 40.4875 7.15417L37.1542 10.4875C36.9208 10.7206 36.7619 11.0177 36.6974 11.3412C36.633 11.6646 36.666 11.9999 36.7923 12.3047C36.9186 12.6094 37.1324 12.8697 37.4067 13.0529C37.681 13.236 38.0035 13.3336 38.3333 13.3333ZM39.5125 37.1542C39.1998 36.8414 38.7756 36.6657 38.3333 36.6657C37.8911 36.6657 37.4669 36.8414 37.1542 37.1542C36.8414 37.4669 36.6657 37.8911 36.6657 38.3333C36.6657 38.7756 36.8414 39.1998 37.1542 39.5125L40.4875 42.8458C40.6423 43.0007 40.8262 43.1235 41.0285 43.2073C41.2308 43.2911 41.4477 43.3343 41.6667 43.3343C41.8857 43.3343 42.1025 43.2911 42.3048 43.2073C42.5071 43.1235 42.691 43.0007 42.8458 42.8458C43.0007 42.691 43.1235 42.5071 43.2073 42.3048C43.2911 42.1025 43.3343 41.8857 43.3343 41.6667C43.3343 41.4477 43.2911 41.2308 43.2073 41.0285C43.1235 40.8262 43.0007 40.6423 42.8458 40.4875L39.5125 37.1542ZM8.33333 25C8.33333 24.558 8.15774 24.134 7.84518 23.8215C7.53262 23.5089 7.10869 23.3333 6.66667 23.3333H1.66667C1.22464 23.3333 0.800716 23.5089 0.488155 23.8215C0.175595 24.134 0 24.558 0 25C0 25.442 0.175595 25.866 0.488155 26.1785C0.800716 26.4911 1.22464 26.6667 1.66667 26.6667H6.66667C7.10869 26.6667 7.53262 26.4911 7.84518 26.1785C8.15774 25.866 8.33333 25.442 8.33333 25ZM25 41.6667C24.558 41.6667 24.134 41.8423 23.8215 42.1548C23.5089 42.4674 23.3333 42.8913 23.3333 43.3333V48.3333C23.3333 48.7754 23.5089 49.1993 23.8215 49.5118C24.134 49.8244 24.558 50 25 50C25.442 50 25.866 49.8244 26.1785 49.5118C26.4911 49.1993 26.6667 48.7754 26.6667 48.3333V43.3333C26.6667 42.8913 26.4911 42.4674 26.1785 42.1548C25.866 41.8423 25.442 41.6667 25 41.6667ZM48.3333 23.3333H43.3333C42.8913 23.3333 42.4674 23.5089 42.1548 23.8215C41.8423 24.134 41.6667 24.558 41.6667 25C41.6667 25.442 41.8423 25.866 42.1548 26.1785C42.4674 26.4911 42.8913 26.6667 43.3333 26.6667H48.3333C48.7754 26.6667 49.1993 26.4911 49.5118 26.1785C49.8244 25.866 50 25.442 50 25C50 24.558 49.8244 24.134 49.5118 23.8215C49.1993 23.5089 48.7754 23.3333 48.3333 23.3333Z" fill="white"/>
</svg>
