<svg xmlns="http://www.w3.org/2000/svg" width="113" height="71" fill="none" xmlns:v="https://vecta.io/nano"><path d="M38.22 17.021c.968-.617 1.55-1.356 1.183-2.569-.21-.694-.751-.894-1.36-.83-.637.066-1.045.471-1.101 1.194-.035.459-.063 1.045.147 1.369.26.4.77.586 1.131.835z" fill="url(#A)"/><path d="M13.576 17.05c1.361-1.31 1.63-2.211.975-3.008-.468-.57-1.418-.583-1.902-.026-.671.773-.416 1.683.927 3.034z" fill="url(#A)"/><path d="M99.364 3.443c1.358-1.296 1.631-2.207.979-3.005a1.28 1.28 0 0 0-1.901-.026c-.674.779-.418 1.695.922 3.031z" fill="url(#A)"/><path d="M61.231 42.364c.03.781.663 1.421 1.406 1.422.785.001 1.506-.841 1.416-1.654a1.39 1.39 0 0 0-1.513-1.299c-.717.037-1.339.764-1.309 1.531z" fill="url(#A)"/><path d="M76.061 1.541C76.015.649 75.583.037 74.987.025c-.657-.014-1.532.993-1.505 1.732.028.762.945 1.701 1.587 1.626.659-.077 1.045-.793.992-1.841z" fill="url(#A)"/><path d="M64.138 1.486C63.678.639 63.275-.14 62.342.078c-.575.135-1.134 1.231-.961 1.869.185.681.442 1.426 1.201 1.429 1.104.004 1.133-1.155 1.555-1.89z" fill="url(#A)"/><path d="M49.215 1.727c.007 1.025.49 1.722 1.157 1.667.579-.048 1.366-.922 1.422-1.58.062-.729-.776-1.762-1.45-1.789-.657-.027-1.135.694-1.129 1.702z" fill="url(#A)"/><path d="M36.904 1.767c.019 1.04.511 1.709 1.192 1.622.596-.076 1.359-.961 1.394-1.614C39.529 1.04 38.664.023 38 .021c-.653-.002-1.113.732-1.095 1.745z" fill="url(#A)"/><path d="M25.83 3.43c1.406-1.238 1.698-2.099 1.073-2.945-.438-.594-1.386-.653-1.902-.119-.709.734-.475 1.686.829 3.064z" fill="url(#A)"/><path d="M99.31 17.036c1.41-1.25 1.7-2.101 1.077-2.944-.435-.59-1.388-.653-1.903-.126-.71.727-.48 1.673.826 3.07z" fill="url(#A)"/><path d="M1.593.038C.951-.042.035.889.002 1.657c-.028.622.685 1.571 1.29 1.718.671.163 1.23-.484 1.289-1.493C2.642.839 2.257.121 1.593.038z" fill="url(#A)"/><path d="M111.631 17.037c1.392-1.263 1.68-2.128 1.056-2.957-.441-.585-1.392-.635-1.902-.101-.707.74-.472 1.676.846 3.058z" fill="url(#A)"/><path d="M86.928 16.972c.983-.225 1.577-.729 1.446-1.965-.09-.843-.445-1.299-1.2-1.392-.728-.089-.987.461-1.226 1.062-.495 1.246.347 1.71.98 2.294z" fill="url(#A)"/><path d="M25.959 17.041c1.316-1.386 1.551-2.319.849-3.06a1.29 1.29 0 0 0-1.901.098c-.631.834-.346 1.694 1.053 2.962z" fill="url(#A)"/><path d="M111.747 3.462c.67-.662 1.594-1.086 1.075-2.306-.27-.635-.75-1.299-1.458-1.068-.375.122-.688.668-.925 1.098-.126.23-.062.625-.026.936.026.222.097.509.238.628.325.275.704.465 1.096.711z" fill="url(#A)"/><path d="M86.917 3.354c.919-.189 1.565-.608 1.461-1.86C88.32.789 88.103.26 87.485.063c-.533-.17-1.409.466-1.614 1.218-.299 1.093.432 1.553 1.046 2.073z" fill="url(#A)"/><path d="M13.405 3.404c1.193-.336 1.654-.982 1.477-2.14-.109-.709-.475-1.343-1.065-1.184-.531.143-1.157.664-1.394 1.214-.45 1.048.457 1.491.982 2.11z" fill="url(#A)"/><path d="M50.668 16.985c.64-.597 1.472-1.104.994-2.131-.251-.538-.884-1.037-1.414-1.159-.601-.139-.931.52-1.028 1.224-.163 1.178.345 1.778 1.448 2.066z" fill="url(#A)"/><path d="M64.101 69.637c-.279-1.046-.68-1.956-1.545-1.776-.551.115-.994.908-1.463 1.376 1.346 2.268 1.515 2.283 3.008.4z" fill="url(#A)"/><path d="M74.57 17.009c1.203-.34 1.653-.994 1.482-2.145-.106-.711-.477-1.338-1.066-1.177-.529.144-1.151.666-1.388 1.216-.452 1.049.465 1.486.972 2.106z" fill="url(#A)"/><path d="M61.218 56.065c.451.907 1.057 1.66 1.998 1.217.391-.184.797-.979.781-1.48-.02-.639-.333-1.33-1.162-1.391-1.1-.081-1.459.623-1.616 1.654z" fill="url(#A)"/><path d="M85.782 28.76c.025.915.528 1.446 1.342 1.417s1.268-.59 1.242-1.527c-.026-.928-.511-1.438-1.342-1.414-.821.023-1.268.572-1.242 1.525z" fill="url(#A)"/><path d="M1.583 67.795c-.615-.059-1.475.672-1.564 1.328-.097.724.676 1.771 1.37 1.855.605.073 1.103-.5 1.19-1.369.097-.963-.336-1.751-.996-1.815z" fill="url(#A)"/><path d="M111.665 68.031c-.803.008-1.284.579-1.268 1.505s.506 1.469 1.314 1.457 1.28-.566 1.271-1.505c-.01-.92-.502-1.465-1.317-1.457z" fill="url(#A)"/><path d="M99.355 68.03c-.801.015-1.282.592-1.266 1.514s.509 1.464 1.321 1.45 1.276-.57 1.266-1.514c-.01-.922-.505-1.466-1.321-1.45z" fill="url(#A)"/><path d="M13.567 54.433c-.804.016-1.28.584-1.267 1.512s.502 1.459 1.32 1.446 1.278-.565 1.268-1.51c-.01-.919-.506-1.464-1.321-1.449z" fill="url(#A)"/><path d="M111.718 27.236c-.821-.014-1.306.513-1.323 1.438-.018.936.446 1.486 1.266 1.501s1.308-.518 1.322-1.438c.014-.944-.443-1.487-1.265-1.501z" fill="url(#A)"/><path d="M0 15.32c-.006.646.792 1.494 1.44 1.531.548.031 1.112-.676 1.141-1.429.039-1.035-.374-1.744-1.04-1.785S.007 14.546 0 15.32z" fill="url(#A)"/><path d="M98.087 28.657c-.021.94.439 1.497 1.253 1.518.821.021 1.317-.508 1.335-1.423.018-.946-.434-1.493-1.253-1.516s-1.314.502-1.335 1.421z" fill="url(#A)"/><path d="M25.799 68.03c-.782.061-1.246.683-1.191 1.599.054.899.593 1.427 1.395 1.366.776-.059 1.243-.686 1.194-1.602-.048-.885-.602-1.426-1.398-1.364z" fill="url(#A)"/><path d="M13.575 68.03c-.801.017-1.284.589-1.274 1.509.01.926.499 1.468 1.315 1.457.807-.01 1.278-.57 1.273-1.51-.005-.924-.5-1.473-1.314-1.456z" fill="url(#A)"/><path d="M25.805 54.433c-.782.055-1.249.675-1.198 1.59.049.898.584 1.425 1.389 1.369.778-.055 1.248-.675 1.201-1.589-.046-.889-.591-1.427-1.392-1.371z" fill="url(#A)"/><path d="M110.394 42.35c.019.917.512 1.448 1.33 1.428s1.274-.563 1.257-1.508c-.016-.925-.502-1.449-1.327-1.43-.817.019-1.279.572-1.26 1.51z" fill="url(#A)"/><path d="M36.912 55.936c.015.925.505 1.467 1.316 1.454s1.283-.567 1.272-1.502c-.01-.919-.508-1.469-1.317-1.458-.804.012-1.286.583-1.271 1.506z" fill="url(#A)"/><path d="M64.117 15.017c-.493-.812-.907-1.681-1.87-1.277-.656.276-1.003 1.048-.847 1.74.116.513.661 1.179 1.092 1.262 1.085.21 1.315-.87 1.625-1.725z" fill="url(#A)"/><path d="M85.782 55.87c-.019.94.443 1.499 1.255 1.519s1.305-.51 1.329-1.436-.45-1.5-1.254-1.522c-.811-.021-1.313.521-1.331 1.438z" fill="url(#A)"/><path d="M98.088 55.869c-.017.941.445 1.501 1.256 1.521s1.309-.513 1.331-1.434c.023-.927-.449-1.5-1.255-1.522s-1.315.521-1.332 1.435z" fill="url(#A)"/><path d="M110.395 55.869c-.016.942.445 1.501 1.256 1.52.821.02 1.31-.507 1.331-1.432s-.45-1.499-1.255-1.523c-.813-.023-1.316.518-1.332 1.434z" fill="url(#A)"/><path d="M12.3 42.214c-.042.94.404 1.518 1.21 1.564.816.046 1.335-.471 1.379-1.373.044-.922-.417-1.517-1.212-1.566-.814-.05-1.336.471-1.377 1.375z" fill="url(#A)"/><path d="M24.605 42.355c.019.915.516 1.444 1.334 1.423s1.274-.569 1.256-1.514c-.018-.916-.514-1.447-1.334-1.426s-1.275.577-1.256 1.516z" fill="url(#A)"/><path d="M38.237 40.839c-.82-.015-1.312.518-1.325 1.436-.014.942.444 1.487 1.265 1.504s1.309-.51 1.323-1.434c.015-.941-.446-1.491-1.263-1.505z" fill="url(#A)"/><path d="M24.605 28.744c.016.914.514 1.45 1.33 1.431s1.278-.571 1.259-1.511c-.019-.922-.509-1.45-1.329-1.431s-1.277.564-1.26 1.51z" fill="url(#A)"/><path d="M87.041 40.84c-.819.017-1.275.563-1.259 1.507.015.922.504 1.449 1.326 1.431s1.275-.562 1.26-1.508c-.014-.924-.499-1.447-1.327-1.431z" fill="url(#A)"/><path d="M98.087 42.267c-.019.945.437 1.493 1.257 1.512s1.313-.507 1.331-1.425c.019-.94-.44-1.494-1.256-1.515s-1.314.511-1.332 1.428z" fill="url(#A)"/><path d="M2.363 30.034c.263-2.211.021-2.797-1.074-2.796-.637.001-1.22.725-1.279 1.59-.067.982.572 1.331 2.352 1.206z" fill="url(#A)"/><path d="M12.3 28.583c-.055.927.397 1.533 1.188 1.592.812.061 1.35-.457 1.401-1.348.052-.918-.405-1.53-1.191-1.593-.812-.065-1.345.45-1.398 1.349z" fill="url(#A)"/><path d="M36.91 28.826c.048.889.587 1.409 1.4 1.35.79-.058 1.241-.66 1.189-1.591-.05-.901-.58-1.414-1.395-1.35-.783.062-1.243.675-1.194 1.591z" fill="url(#A)"/><path d="M49.376 29.963c1.762.222 2.432-.089 2.424-1.045-.008-.921-.715-1.758-1.419-1.682-.991.107-1.166.55-1.005 2.727z" fill="url(#A)"/><path d="M64.101 28.595c-1.414-1.812-1.513-1.813-2.891-.036.204.727.262 1.534 1.218 1.637.985.105 1.391-.49 1.673-1.601z" fill="url(#A)"/><path d="M2.344 54.514c-.483-.032-.837-.125-1.168-.061-.668.128-1.282 1.037-1.077 1.678.176.547.328 1.229 1.066 1.265.789.038 1.341-.391 1.396-1.335.03-.508-.138-1.031-.217-1.547z" fill="url(#A)"/><path d="M73.515 69.628c.379.751.79 1.513 1.724 1.304.582-.13 1.192-1.256.951-1.856-.171-.426-.59-.881-.975-1.001-.829-.259-1.019-.02-1.7 1.553z" fill="url(#A)"/><path d="M49.365 68.275c-.132 1.968.173 2.751.99 2.711.654-.031 1.47-1.021 1.443-1.751-.033-.933-.724-1.228-2.434-.96z" fill="url(#A)"/><path d="M75.905 29.962c.167-2.171-.099-2.751-1.174-2.724-.622.015-1.261.876-1.194 1.609.09.988.75 1.323 2.368 1.115z" fill="url(#A)"/><path d="M75.956 54.546c-.545-.051-.888-.145-1.217-.101-.648.086-1.342.975-1.176 1.597.149.562.299 1.239 1 1.347.757.117 1.348-.315 1.474-1.236.061-.447-.039-.923-.08-1.608z" fill="url(#A)"/><path d="M49.223 42.266c-.018.96.447 1.508 1.284 1.512.73.004 1.297-.543 1.294-1.249-.003-.776-.636-1.651-1.216-1.685-.844-.048-1.344.474-1.361 1.422z" fill="url(#A)"/><path d="M87.314 70.983c.599-.026 1.06-.686 1.053-1.507-.008-.928-.498-1.466-1.319-1.446-.698.017-1.272.6-1.259 1.278.015.758.875 1.703 1.525 1.674z" fill="url(#A)"/><path d="M38.295 68.03c-.808-.055-1.343.478-1.384 1.378-.037.819.394 1.496.996 1.567.642.075 1.519-.812 1.58-1.599.053-.693-.482-1.297-1.192-1.346z" fill="url(#A)"/><path d="M51.747 55.976c.035-.766-.625-1.56-1.28-1.542-.723.02-1.176.491-1.244 1.294-.078.915.367 1.566 1.137 1.664.645.082 1.353-.641 1.388-1.416z" fill="url(#A)"/><path d="M73.536 42.245c-.032.77.62 1.548 1.277 1.533.744-.017 1.159-.447 1.243-1.286.092-.918-.35-1.556-1.132-1.654-.652-.081-1.356.632-1.388 1.407z" fill="url(#A)"/><path d="M1.343 43.776c.814-.028 1.262-.584 1.236-1.532-.025-.93-.518-1.441-1.35-1.401-.536.026-1.148.763-1.171 1.41-.028.775.622 1.546 1.286 1.523z" fill="url(#A)"/><defs><linearGradient id="A" x1="56.5" y1="0" x2="56.231" y2="91.707" gradientUnits="userSpaceOnUse"><stop stop-color="#557aff"/><stop offset="1" stop-color="#557aff" stop-opacity="0"/></linearGradient></defs></svg>