<svg viewBox="0 0 52 52" fill="none" xmlns="http://www.w3.org/2000/svg">
<path d="M51 28.2523C50.5621 32.9907 48.7838 37.5063 45.8731 41.271C42.9625 45.0356 39.0399 47.8934 34.5643 49.51C30.0887 51.1266 25.2453 51.4351 20.6008 50.3995C15.9563 49.3639 11.7027 47.0269 8.3379 43.6621C4.97307 40.2973 2.63612 36.0437 1.6005 31.3992C0.564885 26.7547 0.87343 21.9113 2.49004 17.4357C4.10664 12.9601 6.96445 9.03751 10.7291 6.12686C14.4937 3.2162 19.0093 1.43789 23.7477 1C20.9736 4.75315 19.6386 9.37735 19.9857 14.0316C20.3328 18.6858 22.3388 23.0609 25.639 26.361C28.9392 29.6612 33.3142 31.6672 37.9684 32.0143C42.6227 32.3614 47.2468 31.0264 51 28.2523Z" fill="white" stroke="white" stroke-linecap="round" stroke-linejoin="round"/>
</svg>
